<svg width="24" height="24" viewBox="0 0 24 24" fill="currentColor" xmlns="http://www.w3.org/2000/svg">
<g clip-path="url(#clip0_18_364)">
<path d="M9.77143 4.14545L9.74694 4.16969H9.40408L9.37959 4.19393H9.18367L9.15918 4.21817H9.01225L8.98775 4.24242H8.86531L8.84082 4.26666H8.74286L8.71837 4.2909H8.62041L8.59592 4.31514H8.52245L8.49796 4.33939H8.42449L8.4 4.36363H8.32653L8.30204 4.38787H8.25306L8.22857 4.41211H8.1551L8.13061 4.43636H8.08163L8.05714 4.4606H8.00816L7.98367 4.48484H7.93469L7.9102 4.50908H7.86122L7.83673 4.53333H7.78776L7.76327 4.55757H7.73878L7.71429 4.58181H7.66531L7.64082 4.60605H7.61633L7.59184 4.6303H7.54286L7.51837 4.65454H7.49388L7.46939 4.67878H7.4449L7.42041 4.70302H7.37143L7.34694 4.72727H7.32245L7.29796 4.75151H7.27347L7.24898 4.77575H7.22449L7.2 4.79999H7.17551L7.15102 4.82423H7.12653L7.10204 4.84848H7.07755L7.05306 4.87272H7.02857L7.00408 4.89696H6.97959L6.9551 4.9212H6.93061L6.90612 4.94545H6.88163L6.83265 4.99393H6.80816L6.78367 5.01817H6.75918L6.73469 5.04242H6.7102L6.66122 5.0909H6.63673L6.61225 5.11514H6.58776L6.53878 5.16363H6.51429L6.46531 5.21211H6.44082L6.39184 5.2606H6.36735L6.34286 5.28484H6.31837L6.2449 5.35757H6.22041L6.17143 5.40605H6.14694L6.07347 5.47878H6.04898L5.97551 5.55151H5.95102L5.87755 5.62423H5.85306L5.7551 5.7212H5.73061L5.60816 5.84242H5.58367L5.36327 6.0606H5.33878L4.92245 6.47272V6.49696L4.70204 6.71514V6.73939L4.5551 6.88484V6.90908L4.45714 7.00605V7.0303L4.35918 7.12726V7.15151L4.28571 7.22423V7.24848L4.21224 7.3212V7.34545L4.13878 7.41817V7.44242L4.06531 7.51514V7.53939L4.01633 7.58787V7.61211L3.99184 7.63636V7.6606L3.96735 7.68484V7.70908L3.94286 7.73333V7.75757L3.91837 7.78181V7.80605L3.89388 7.8303V7.87878L3.86939 7.90302V7.97575L3.8449 7.99999V8.09696L3.82041 8.1212V8.36363L3.8449 8.38787V8.48484L3.86939 8.50908V8.58181L3.89388 8.60605V8.6303L3.91837 8.65454V8.70302L3.94286 8.72727V8.75151L3.99184 8.79999V8.82423L4.01633 8.84848V8.87272L4.0898 8.94545V8.96969L4.28571 9.16363H4.3102L4.38367 9.23636H4.40816L4.45714 9.28484H4.48163L4.50612 9.30908H4.53061L4.5551 9.33333H4.57959L4.62857 9.38181H4.67755L4.70204 9.40605H4.72653L4.75102 9.4303H4.8L4.82449 9.45454H4.87347L4.89796 9.47878H4.97143L4.99592 9.50302H5.09388L5.11837 9.52727H5.55918L5.58367 9.50302H5.68163L5.70612 9.47878H5.77959L5.80408 9.45454H5.85306L5.87755 9.4303H5.90204L5.92653 9.40605H5.95102L5.97551 9.38181H6L6.02449 9.35757H6.04898L6.07347 9.33333H6.09796L6.14694 9.28484H6.17143L6.2449 9.21211H6.26939L6.46531 9.01817V8.99393L6.53878 8.9212V8.89696L6.61225 8.82423V8.79999L6.68571 8.72727V8.70302L6.78367 8.60605V8.58181L6.90612 8.4606V8.43636L7.46939 7.87878H7.49388L7.61633 7.75757H7.64082L7.71429 7.68484H7.73878L7.81224 7.61211H7.83673L7.88571 7.56363H7.9102L7.95918 7.51514H7.98367L8.00816 7.4909H8.03265L8.08163 7.44242H8.10612L8.13061 7.41817H8.1551L8.17959 7.39393H8.20408L8.25306 7.34545H8.27755L8.30204 7.3212H8.32653L8.35102 7.29696H8.37551L8.4 7.27272H8.42449L8.44898 7.24848H8.49796L8.52245 7.22423H8.54694L8.57143 7.19999H8.62041L8.6449 7.17575H8.66939L8.69388 7.15151H8.74286L8.76735 7.12726H8.81633L8.84082 7.10302H8.8898L8.91429 7.07878H8.96327L8.98775 7.05454H9.06122L9.08571 7.0303H9.18367L9.20816 7.00605H9.30612L9.33061 6.98181H9.45306L9.47755 6.95757H9.72245L9.74694 6.93333H10.1633L10.1878 6.95757H10.4327L10.4571 6.98181H10.6041L10.6286 7.00605H10.7265L10.751 7.0303H10.849L10.8735 7.05454H10.9714L10.9959 7.07878H11.0449L11.0694 7.10302H11.1429L11.1673 7.12726H11.2163L11.2408 7.15151H11.2898L11.3143 7.17575L11.2898 7.19999V7.22423L11.2653 7.24848V7.27272L11.2408 7.29696V7.3212L11.1918 7.36969V7.39393L11.1673 7.41817V7.44242L11.1429 7.46666V7.4909L11.0939 7.53939V7.56363L11.0694 7.58787V7.61211L11.0449 7.63636V7.6606L11.0204 7.68484V7.70908L10.9714 7.75757V7.78181L10.9469 7.80605V7.8303L10.9224 7.85454V7.87878L10.8735 7.92727V7.95151L10.849 7.97575V7.99999L10.8245 8.02423V8.04848L10.8 8.07272V8.09696L10.7755 8.1212V8.14545L10.7265 8.19393V8.21817L10.702 8.24242V8.26666L10.6776 8.2909V8.31514L10.6531 8.33939V8.36363L10.6041 8.41211V8.43636L10.5796 8.4606V8.48484L10.5551 8.50908V8.53333L10.5306 8.55757V8.58181L10.5061 8.60605V8.6303L10.4816 8.65454V8.67878L10.4327 8.72727V8.75151L10.4082 8.77575V8.79999L10.3837 8.82423V8.84848L10.3592 8.87272V8.89696L10.3347 8.9212V8.94545L10.3102 8.96969V8.99393L10.2857 9.01817V9.04242L10.2367 9.0909V9.11514L10.2122 9.13939V9.16363L10.1878 9.18787V9.21211L10.1633 9.23636V9.2606L10.1388 9.28484V9.30908L10.1143 9.33333V9.35757L10.0898 9.38181V9.40605L10.0653 9.4303V9.45454L10.0408 9.47878V9.50302L9.99184 9.55151V9.57575L9.96735 9.59999V9.62423L9.94286 9.64848V9.67272L9.91837 9.69696V9.7212L9.89388 9.74545V9.76969L9.86939 9.79393V9.81817L9.8449 9.84242V9.86666L9.82041 9.8909V9.91514L9.79592 9.93939V9.96363L9.77143 9.98787V10.0121L9.74694 10.0364V10.0606L9.72245 10.0848V10.1091L9.69796 10.1333V10.1576L9.64898 10.2061V10.2303L9.62449 10.2545V10.2788L9.6 10.303V10.3273L9.57551 10.3515V10.3758L9.55102 10.4V10.4242L9.52653 10.4485V10.4727L9.50204 10.497V10.5212L9.47755 10.5454V10.5697L9.45306 10.5939V10.6182L9.42857 10.6424V10.6667L9.40408 10.6909V10.7151L9.37959 10.7394V10.7636L9.3551 10.7879V10.8121L9.33061 10.8364V10.8606L9.30612 10.8848V10.9091L9.28163 10.9333V10.9576L9.25714 10.9818V11.0061L9.23265 11.0303V11.0545L9.20816 11.0788V11.103L9.18367 11.1273V11.1515L9.15918 11.1758V11.2L9.13469 11.2242V11.2485L9.1102 11.2727V11.297L9.08571 11.3212V11.3454L9.06122 11.3697V11.3939L9.01225 11.4424V11.4667L8.98775 11.4909V11.5151L8.96327 11.5394V11.5636L8.93878 11.5879V11.6121L8.91429 11.6364V11.6606L8.8898 11.6848V11.7091L8.86531 11.7333V11.7576L8.84082 11.7818V11.8061L8.81633 11.8303V11.8545L8.79184 11.8788V11.903L8.76735 11.9273V11.9515L8.74286 11.9757V12L8.71837 12.0242V12.0485L8.69388 12.0727V12.097L8.66939 12.1212V12.1454L8.6449 12.1697V12.1939L8.62041 12.2182V12.2424L8.59592 12.2667V12.2909L8.57143 12.3151V12.3394L8.54694 12.3636V12.3879L8.52245 12.4121V12.4364L8.49796 12.4606V12.4848L8.47347 12.5091V12.5333L8.44898 12.5576V12.5818L8.42449 12.6061V12.6303L8.4 12.6545V12.6788L8.37551 12.703V12.7273L8.35102 12.7515V12.7758L8.30204 12.8242V12.8485L8.27755 12.8727V12.897L8.25306 12.9212V12.9454L8.20408 12.9939V13.0182L8.17959 13.0424V13.0667L8.13061 13.1151V13.1394L8.10612 13.1636V13.1879L8.05714 13.2364V13.2606L8.00816 13.3091V13.3333L7.95918 13.3818V13.4061L7.88571 13.4788V13.503L7.83673 13.5515V13.5758L7.73878 13.6727V13.697L7.66531 13.7697V13.7939L7.54286 13.9151V13.9394L7.37143 14.1091V14.1333L7.00408 14.497H6.97959L6.80816 14.6667H6.78367L6.66122 14.7879H6.63673L6.56327 14.8606H6.53878L6.46531 14.9333H6.44082L6.39184 14.9818H6.36735L6.31837 15.0303H6.29388L6.2449 15.0788H6.22041L6.17143 15.1273H6.14694L6.12245 15.1515H6.09796L6.04898 15.2H6.02449L6 15.2242H5.97551L5.95102 15.2485H5.92653L5.90204 15.2727H5.87755L5.82857 15.3212H5.77959L5.7551 15.3454H5.73061L5.70612 15.3697H5.68163L5.65714 15.3939H5.63265L5.60816 15.4182H5.58367L5.55918 15.4424H5.5102L5.48571 15.4667H5.46122L5.43673 15.4909H5.38775L5.36327 15.5151H5.33878L5.31429 15.5394H5.26531L5.24082 15.5636H5.19184L5.16735 15.5879H5.09388L5.06939 15.6121H5.02041L4.99592 15.6364H4.92245L4.89796 15.6606H4.8L4.77551 15.6848H4.65306L4.62857 15.7091H4.48163L4.45714 15.7333H3.74694L3.72245 15.7091H3.57551L3.55102 15.6848H3.45306L3.42857 15.6606H3.33061L3.30612 15.6364H3.23265L3.20816 15.6121H3.15918L3.13469 15.5879H3.08571L3.06122 15.5636H3.01224L2.98776 15.5394H2.93878L2.91429 15.5151H2.86531L2.84082 15.4909H2.81633L2.79184 15.4667H2.76735L2.74286 15.4424H2.69388L2.66939 15.4182H2.6449L2.62041 15.3939H2.59592L2.57143 15.3697H2.54694L2.52245 15.3454H2.49796L2.47347 15.3212H2.44898L2.4 15.2727H2.37551L2.35102 15.2485H2.32653L2.30204 15.2242H2.27755L2.25306 15.2H2.22857L2.20408 15.1758H2.17959L2.1551 15.1515H2.13061L2.10612 15.1273H2.08163L2.05714 15.103H2.00816L1.98367 15.0788H1.93469L1.9102 15.0545H1.83673L1.81224 15.0303H1.6898L1.66531 15.0061H1.32245L1.29796 15.0303H1.2L1.17551 15.0545H1.10204L1.07755 15.0788H1.02857L1.00408 15.103H0.955102L0.930612 15.1273H0.906122L0.881633 15.1515H0.857143L0.832653 15.1758H0.808163L0.759184 15.2242H0.734694L0.710204 15.2485H0.685714L0.612245 15.3212H0.587755L0.342857 15.5636V15.5879L0.269388 15.6606V15.6848L0.220408 15.7333V15.7576L0.195918 15.7818V15.8061L0.171429 15.8303V15.8545L0.146939 15.8788V15.903L0.122449 15.9273V15.9515L0.0979592 15.9757V16.0242L0.0734694 16.0485V16.097L0.0489796 16.1212V16.1939L0.0244898 16.2182V16.3151L0 16.3394V16.6788L0.0244898 16.703V16.8L0.0489796 16.8242V16.897L0.0734694 16.9212V16.9697L0.0979592 16.9939V17.0182L0.122449 17.0424V17.0667L0.146939 17.0909V17.1151L0.171429 17.1394V17.1636L0.195918 17.1879V17.2121L0.269388 17.2848V17.3091L0.538776 17.5758H0.563265L0.636735 17.6485H0.661224L0.685714 17.6727H0.710204L0.759184 17.7212H0.783673L0.808163 17.7454H0.832653L0.881633 17.7939H0.906122L0.930612 17.8182H0.955102L0.979592 17.8424H1.00408L1.02857 17.8667H1.05306L1.07755 17.8909H1.10204L1.12653 17.9151H1.15102L1.17551 17.9394H1.2L1.22449 17.9636H1.24898L1.27347 17.9879H1.29796L1.32245 18.0121H1.34694L1.37143 18.0364H1.39592L1.42041 18.0606H1.46939L1.49388 18.0848H1.51837L1.54286 18.1091H1.56735L1.59184 18.1333H1.64082L1.66531 18.1576H1.6898L1.71429 18.1818H1.76327L1.78776 18.2061H1.81224L1.83673 18.2303H1.88571L1.9102 18.2545H1.95918L1.98367 18.2788H2.03265L2.05714 18.303H2.10612L2.13061 18.3273H2.17959L2.20408 18.3515H2.25306L2.27755 18.3758H2.32653L2.35102 18.4H2.42449L2.44898 18.4242H2.49796L2.52245 18.4485H2.59592L2.62041 18.4727H2.71837L2.74286 18.497H2.81633L2.84082 18.5212H2.93878L2.96327 18.5454H3.06122L3.08571 18.5697H3.23265L3.25714 18.5939H3.40408L3.42857 18.6182H3.62449L3.64898 18.6424H4.04082L4.06531 18.6667H4.40816L4.43265 18.6424H4.87347L4.89796 18.6182H5.09388L5.11837 18.5939H5.2898L5.31429 18.5697H5.43673L5.46122 18.5454H5.58367L5.60816 18.5212H5.68163L5.70612 18.497H5.80408L5.82857 18.4727H5.90204L5.92653 18.4485H6L6.02449 18.4242H6.09796L6.12245 18.4H6.19592L6.22041 18.3758H6.29388L6.31837 18.3515H6.36735L6.39184 18.3273H6.44082L6.46531 18.303H6.51429L6.53878 18.2788H6.58776L6.61225 18.2545H6.66122L6.68571 18.2303H6.73469L6.75918 18.2061H6.78367L6.80816 18.1818H6.85714L6.88163 18.1576H6.90612L6.93061 18.1333H6.97959L7.00408 18.1091H7.02857L7.05306 18.0848H7.10204L7.12653 18.0606H7.15102L7.17551 18.0364H7.2L7.22449 18.0121H7.27347L7.29796 17.9879H7.32245L7.34694 17.9636H7.37143L7.39592 17.9394H7.42041L7.4449 17.9151H7.46939L7.49388 17.8909H7.51837L7.54286 17.8667H7.56735L7.59184 17.8424H7.61633L7.64082 17.8182H7.66531L7.6898 17.7939H7.71429L7.76327 17.7454H7.78776L7.81224 17.7212H7.83673L7.86122 17.697H7.88571L7.93469 17.6485H7.95918L7.98367 17.6242H8.00816L8.05714 17.5758H8.08163L8.10612 17.5515H8.13061L8.17959 17.503H8.20408L8.25306 17.4545H8.27755L8.32653 17.4061H8.35102L8.4 17.3576H8.42449L8.47347 17.3091H8.49796L8.57143 17.2364H8.59592L8.66939 17.1636H8.69388L8.79184 17.0667H8.81633L8.93878 16.9454H8.96327L9.1102 16.8H9.13469L9.62449 16.3151V16.2909L9.79592 16.1212V16.097L9.91837 15.9757H9.96735L9.99184 16H10.0163L10.0408 16.0242H10.0898L10.1143 16.0485H10.1633L10.1878 16.0727H10.2122L10.2367 16.097H10.2857L10.3102 16.1212H10.3592L10.3837 16.1454H10.4082L10.4327 16.1697H10.4816L10.5061 16.1939H10.5306L10.5551 16.2182H10.5796L10.6041 16.2424H10.6531L10.6776 16.2667H10.702L10.7265 16.2909H10.751L10.7755 16.3151H10.8L10.8245 16.3394H10.8735L10.898 16.3636H10.9224L10.9469 16.3879H10.9714L10.9959 16.4121H11.0204L11.0449 16.4364H11.0694L11.0939 16.4606H11.1184L11.1429 16.4848H11.1673L11.1918 16.5091H11.2163L11.2408 16.5333H11.2653L11.2898 16.5576H11.3143L11.3388 16.5818H11.3633L11.3878 16.6061H11.4122L11.4367 16.6303H11.4612L11.4857 16.6545H11.5102L11.5347 16.6788H11.5592L11.6082 16.7273H11.6327L11.6571 16.7515H11.6816L11.7061 16.7758H11.7306L11.7551 16.8H11.7796L11.8041 16.8242H11.8286L11.8776 16.8727H11.902L11.9265 16.897H11.951L11.9755 16.9212H12L12.049 16.9697H12.0735L12.098 16.9939H12.1224L12.1714 17.0424H12.1959L12.2204 17.0667H12.2449L12.2939 17.1151H12.3184L12.3429 17.1394H12.3673L12.3918 17.1636H12.4163L12.4653 17.2121H12.4898L12.5388 17.2606H12.5633L12.5878 17.2848H12.6122L12.6612 17.3333H12.6857L12.7347 17.3818H12.7592L12.8082 17.4303H12.8327L12.8571 17.4545H12.8816L12.9306 17.503H12.9551L13.0041 17.5515H13.0286L13.0776 17.6H13.102L13.151 17.6485H13.1755L13.2245 17.697H13.249L13.298 17.7454H13.3224L13.3714 17.7939H13.3959L13.4449 17.8424H13.4694L13.5184 17.8909H13.5429L13.5918 17.9394H13.6163L13.6898 18.0121H13.7143L13.7633 18.0606H13.7878L13.8612 18.1333H13.8857L13.9347 18.1818H13.9592L14.0327 18.2545H14.0571L14.1306 18.3273H14.1551L14.2286 18.4H14.2531L14.3265 18.4727H14.351L14.449 18.5697H14.4735L14.7429 18.8364V18.8606L14.8163 18.9333V18.9576L14.8898 19.0303V19.0545L14.9388 19.103V19.1273L14.9633 19.1515V19.1758L15.0122 19.2242V19.2485L15.0612 19.297V19.3212L15.0857 19.3454V19.3697L15.1102 19.3939V19.4182L15.1592 19.4667V19.4909L15.1837 19.5151V19.5394L15.2082 19.5636V19.5879L15.2571 19.6364V19.6606L15.2816 19.6848V19.7091L15.3061 19.7333V19.7576L15.3306 19.7818V19.8061L15.3551 19.8303V19.8545L15.3796 19.8788V19.903L15.4286 19.9515V19.9758L15.4531 20V20.0242L15.4776 20.0485V20.0727L15.502 20.097V20.1212L15.5265 20.1454V20.1697L15.551 20.1939V20.2182L15.5755 20.2424V20.2667L15.6 20.2909V20.3151L15.6245 20.3394V20.3636L15.649 20.3879V20.4121L15.6735 20.4364V20.4606L15.698 20.4848V20.5091L15.7224 20.5333V20.5818L15.7469 20.6061V20.6303L15.7714 20.6545V20.6788L15.7959 20.703V20.7273L15.8204 20.7515V20.7758L15.8449 20.8V20.8242L15.8694 20.8485V20.8727L15.8939 20.897V20.9212L15.9184 20.9454V20.9697L15.9429 20.9939V21.0424L15.9673 21.0667V21.0909L15.9918 21.1151V21.1394L16.0163 21.1636V21.1879L16.0408 21.2121V21.2364L16.0653 21.2606V21.2848L16.0898 21.3091V21.3333L16.1143 21.3576V21.4061L16.1388 21.4303V21.4545L16.1633 21.4788V21.503L16.1878 21.5273V21.5515L16.2122 21.5758V21.6L16.2367 21.6242V21.6485L16.2612 21.6727V21.7212L16.2857 21.7454V21.7697L16.3102 21.7939V21.8182L16.3347 21.8424V21.8667L16.3592 21.8909V21.9151L16.3837 21.9394V21.9879L16.4082 22.0121V22.0364L16.4327 22.0606V22.0848L16.4571 22.1091V22.1333L16.4816 22.1576V22.1818L16.5061 22.2061V22.2303L16.5306 22.2545V22.303L16.5551 22.3273V22.3515L16.5796 22.3758V22.4L16.6041 22.4242V22.4485L16.6286 22.4727V22.497L16.6531 22.5212V22.5697L16.6776 22.5939V22.6182L16.702 22.6424V22.6667L16.7265 22.6909V22.7151L16.751 22.7394V22.7636L16.7755 22.7879V22.8121L16.8 22.8364V22.8606L16.8245 22.8848V22.9333L16.849 22.9576V22.9818L16.8735 23.0061V23.0303L16.898 23.0545V23.0788L16.9224 23.103V23.1273L16.9469 23.1515V23.1758L16.9714 23.2V23.2242L16.9959 23.2485V23.2727L17.0204 23.297V23.3212L17.0694 23.3697V23.3939L17.1184 23.4424V23.4667L17.3633 23.7091H17.3878L17.4612 23.7818H17.4857L17.5102 23.8061H17.5347L17.5592 23.8303H17.5837L17.6082 23.8545H17.6327L17.6571 23.8788H17.7061L17.7306 23.903H17.7796L17.8041 23.9273H17.8776L17.902 23.9515H18.0735L18.098 23.9757H18.2204L18.2449 23.9515H18.4408L18.4653 23.9273H18.5388L18.5633 23.903H18.6367L18.6612 23.8788H18.7102L18.7347 23.8545H18.7592L18.7837 23.8303H18.8327L18.8571 23.8061H18.8816L18.9061 23.7818H18.9306L18.9796 23.7333H19.0041L19.0286 23.7091H19.0531L19.1265 23.6364H19.151L19.3959 23.3939V23.3697L19.4694 23.297V23.2727L19.5184 23.2242V23.2L19.5429 23.1758V23.1515L19.5673 23.1273V23.0788L19.5918 23.0545V23.0303L19.6163 23.0061V22.9576L19.6408 22.9333V22.8364L19.6653 22.8121V22.4242L19.6408 22.4V22.303L19.6163 22.2788V22.2303L19.5918 22.2061V22.1576L19.5673 22.1333V22.0848L19.5429 22.0606V22.0364L19.5184 22.0121V21.9879L19.4939 21.9636V21.9394L19.4694 21.9151V21.8909L19.4449 21.8667V21.8182L19.4204 21.7939V21.7697L19.3959 21.7454V21.7212L19.3714 21.697V21.6727L19.3469 21.6485V21.6242L19.3224 21.6V21.5758L19.298 21.5515V21.5273L19.2735 21.503V21.4788L19.249 21.4545V21.4061L19.2245 21.3818V21.3576L19.2 21.3333V21.3091L19.1755 21.2848V21.2606L19.151 21.2364V21.2121L19.1265 21.1879V21.1636L19.102 21.1394V21.0909L19.0776 21.0667V21.0424L19.0531 21.0182V20.9939L19.0286 20.9697V20.9454L19.0041 20.9212V20.897L18.9796 20.8727V20.8242L18.9551 20.8V20.7758L18.9306 20.7515V20.7273L18.9061 20.703V20.6788L18.8816 20.6545V20.6303L18.8571 20.6061V20.5818L18.8327 20.5576V20.5091L18.8082 20.4848V20.4606L18.7837 20.4364V20.4121L18.7592 20.3879V20.3636L18.7347 20.3394V20.3151L18.7102 20.2909V20.2667L18.6857 20.2424V20.2182L18.6612 20.1939V20.1454L18.6367 20.1212V20.097L18.6122 20.0727V20.0485L18.5878 20.0242V20L18.5633 19.9758V19.9515L18.5388 19.9273V19.903L18.5143 19.8788V19.8303L18.4898 19.8061V19.7818L18.4653 19.7576V19.7333L18.4408 19.7091V19.6848L18.4163 19.6606V19.6364L18.3918 19.6121V19.5879L18.3673 19.5636V19.5394L18.3429 19.5151V19.4909L18.3184 19.4667V19.4424L18.2939 19.4182V19.3939L18.2694 19.3697V19.3454L18.2449 19.3212V19.297L18.2204 19.2727V19.2485L18.1959 19.2242V19.1758L18.1714 19.1515V19.1273L18.1469 19.103V19.0788L18.1224 19.0545V19.0303L18.098 19.0061V18.9818L18.0735 18.9576V18.9333L18.049 18.9091V18.8848L18 18.8364V18.8121L17.9755 18.7879V18.7636L17.951 18.7394V18.7151L17.9265 18.6909V18.6667L17.902 18.6424V18.6182L17.8776 18.5939V18.5697L17.8531 18.5454V18.5212L17.8286 18.497V18.4727L17.8041 18.4485V18.4242L17.7796 18.4V18.3758L17.7306 18.3273V18.303L17.7061 18.2788V18.2545L17.6816 18.2303V18.2061L17.6571 18.1818V18.1576L17.6082 18.1091V18.0848L17.5837 18.0606V18.0364L17.5592 18.0121V17.9879L17.5347 17.9636V17.9394L17.4857 17.8909V17.8667L17.4612 17.8424V17.8182L17.4122 17.7697V17.7454L17.3878 17.7212V17.697L17.3388 17.6485V17.6242L17.2898 17.5758V17.5515L17.2653 17.5273V17.503L17.2163 17.4545V17.4303L17.1673 17.3818V17.3576L17.1184 17.3091V17.2848L17.0449 17.2121V17.1879L16.9714 17.1151V17.0909L16.8735 16.9939V16.9697L16.5306 16.6303H16.5061L16.4082 16.5333H16.3837L16.2857 16.4364H16.2612L16.1878 16.3636H16.1633L16.0653 16.2667H16.0408L15.9673 16.1939H15.9429L15.8694 16.1212H15.8449L15.7714 16.0485H15.7469L15.6735 15.9757H15.649L15.5755 15.903H15.551L15.4776 15.8303H15.4531L15.3796 15.7576H15.3551L15.3061 15.7091H15.2816L15.2082 15.6364H15.1837L15.1102 15.5636H15.0857L15.0367 15.5151H15.0122L14.9388 15.4424H14.9143L14.8653 15.3939H14.8408L14.7918 15.3454H14.7673L14.7184 15.297H14.6939L14.6204 15.2242H14.5959L14.5469 15.1758H14.5224L14.4735 15.1273H14.449L14.4 15.0788H14.3755L14.3265 15.0303H14.302L14.2531 14.9818H14.2286L14.1796 14.9333H14.1551L14.1061 14.8848H14.0816L14.0571 14.8606H14.0327L13.9837 14.8121H13.9592L13.9102 14.7636H13.8857L13.8612 14.7394H13.8367L13.7878 14.6909H13.7633L13.7143 14.6424H13.6898L13.6653 14.6182H13.6408L13.5918 14.5697H13.5673L13.5429 14.5454H13.5184L13.4939 14.5212H13.4694L13.4204 14.4727H13.3959L13.3714 14.4485H13.3469L13.3224 14.4242H13.298L13.249 14.3758H13.2245L13.2 14.3515H13.1755L13.151 14.3273H13.1265L13.102 14.303H13.0776L13.0531 14.2788H13.0286L13.0041 14.2545H12.9796L12.9306 14.2061L12.9551 14.1818V14.1576L12.9796 14.1333V14.1091L13.0041 14.0848V14.0606L13.0286 14.0364V14.0121L13.0531 13.9879V13.9636L13.0776 13.9394V13.9151L13.102 13.8909V13.8667L13.1265 13.8424V13.8182L13.1755 13.7697V13.7454L13.2 13.7212V13.697L13.2245 13.6727V13.6485L13.249 13.6242V13.6L13.2735 13.5758V13.5515L13.298 13.5273V13.503L13.3224 13.4788V13.4545L13.3469 13.4303V13.4061L13.3714 13.3818V13.3576L13.3959 13.3333V13.3091L13.4204 13.2848V13.2606L13.4694 13.2121V13.1879L13.4939 13.1636V13.1394L13.5184 13.1151V13.0909L13.5429 13.0667V13.0424L13.5673 13.0182V12.9939L13.5918 12.9697V12.9454L13.6163 12.9212V12.897L13.6408 12.8727V12.8485L13.6898 12.8V12.7758L13.7143 12.7515V12.7273L13.7388 12.703V12.6788L13.7633 12.6545V12.6303L13.7878 12.6061V12.5818L13.8122 12.5576V12.5333L13.8367 12.5091V12.4848L13.8857 12.4364V12.4121L13.9102 12.3879V12.3636L13.9347 12.3394V12.3151L13.9592 12.2909V12.2667L13.9837 12.2424V12.2182L14.0082 12.1939V12.1697L14.0571 12.1212V12.097L14.0816 12.0727V12.0485L14.1061 12.0242V12L14.1306 11.9757V11.9515L14.1551 11.9273V11.903L14.2041 11.8545V11.8303L14.2286 11.8061V11.7818L14.2531 11.7576V11.7333L14.2776 11.7091V11.6848L14.302 11.6606V11.6364L14.351 11.5879V11.5636L14.3755 11.5394V11.5151L14.4 11.4909V11.4667L14.4245 11.4424V11.4182L14.449 11.3939V11.3697L14.498 11.3212V11.297L14.5224 11.2727V11.2485L14.5469 11.2242V11.2L14.5714 11.1758V11.1515L14.6204 11.103V11.0788L14.6449 11.0545V11.0303L14.6694 11.0061V10.9818L14.6939 10.9576V10.9333L14.7429 10.8848V10.8606L14.7673 10.8364V10.8121L14.7918 10.7879V10.7636L14.8163 10.7394V10.7151L14.8653 10.6667V10.6424L14.8898 10.6182V10.5939L14.9143 10.5697V10.5454L14.9633 10.497V10.4727L14.9878 10.4485V10.4242L15.0122 10.4V10.3758L15.0367 10.3515V10.3273L15.0857 10.2788V10.2545L15.1102 10.2303V10.2061L15.1347 10.1818V10.1576L15.1837 10.1091V10.0848L15.2082 10.0606V10.0364L15.2327 10.0121V9.98787L15.2816 9.93939V9.91514L15.3061 9.8909V9.86666L15.3306 9.84242V9.81817L15.3796 9.76969V9.74545L15.4041 9.7212V9.69696L15.4286 9.67272V9.64848L15.4776 9.59999V9.57575L15.502 9.55151V9.52727L15.551 9.47878V9.45454L15.5755 9.4303V9.40605L15.6 9.38181V9.35757L15.649 9.30908V9.28484L15.698 9.23636H15.7224L15.7469 9.2606H15.8204L15.8449 9.28484H15.8939L15.9184 9.30908H15.9918L16.0163 9.33333H16.0898L16.1143 9.35757H16.1878L16.2122 9.38181H16.2857L16.3102 9.40605H16.4082L16.4327 9.4303H16.5306L16.5551 9.45454H16.6776L16.702 9.47878H16.849L16.8735 9.50302H17.0449L17.0694 9.52727H17.3143L17.3388 9.55151H18.2204L18.2449 9.52727H18.4898L18.5143 9.50302H18.6857L18.7102 9.47878H18.8327L18.8571 9.45454H18.9796L19.0041 9.4303H19.102L19.1265 9.40605H19.2245L19.249 9.38181H19.3224L19.3469 9.35757H19.4204L19.4449 9.33333H19.4939L19.5184 9.30908H19.5918L19.6163 9.28484H19.6653L19.6898 9.2606H19.7388L19.7633 9.23636H19.8122L19.8367 9.21211H19.8857L19.9102 9.18787H19.9592L19.9837 9.16363H20.0327L20.0571 9.13939H20.1061L20.1306 9.11514H20.1551L20.1796 9.0909H20.2041L20.2286 9.06666H20.2776L20.302 9.04242H20.3265L20.351 9.01817H20.4L20.4245 8.99393H20.449L20.4735 8.96969H20.498L20.5224 8.94545H20.5469L20.5714 8.9212H20.5959L20.6204 8.89696H20.6449L20.6694 8.87272H20.6939L20.7184 8.84848H20.7429L20.7673 8.82423H20.7918L20.8163 8.79999H20.8408L20.8653 8.77575H20.8898L20.9143 8.75151H20.9388L20.9878 8.70302H21.0122L21.0367 8.67878H21.0612L21.0857 8.65454H21.1102L21.1592 8.60605H21.1837L21.2082 8.58181H21.2327L21.2816 8.53333H21.3061L21.3551 8.48484H21.3796L21.4286 8.43636H21.4531L21.502 8.38787H21.5265L21.5755 8.33939H21.6L21.6735 8.26666H21.698L21.7469 8.21817H21.7714L21.8449 8.14545H21.8694L21.9673 8.04848H21.9918L22.1143 7.92727H22.1388L22.2857 7.78181H22.3102L22.9959 7.10302V7.07878L23.1673 6.90908V6.88484L23.2898 6.76363V6.73939L23.3878 6.64242V6.61817L23.4857 6.5212V6.49696L23.5592 6.42423V6.39999L23.6327 6.32727V6.30302L23.7061 6.2303V6.20605L23.7551 6.15757V6.13333L23.7796 6.10908V6.08484L23.8286 6.03636V6.01211L23.8531 5.98787V5.96363L23.8776 5.93939V5.8909L23.902 5.86666V5.81817L23.9265 5.79393V5.74545L23.951 5.7212V5.62423L23.9755 5.59999V5.33333L23.951 5.30908V5.21211L23.9265 5.18787V5.13939L23.902 5.11514V5.06666L23.8776 5.04242V5.01817L23.8531 4.99393V4.96969L23.8286 4.94545V4.9212L23.8041 4.89696V4.87272L23.7551 4.82423V4.79999L23.6327 4.67878V4.65454L23.5837 4.60605H23.5592L23.4612 4.50908H23.4367L23.3633 4.43636H23.3388L23.3143 4.41211H23.2898L23.2408 4.36363H23.2163L23.1918 4.33939H23.1673L23.1429 4.31514H23.0939L23.0694 4.2909H23.0449L23.0204 4.26666H22.9714L22.9469 4.24242H22.8735L22.849 4.21817H22.7755L22.751 4.19393H22.5796L22.5551 4.16969H22.3592L22.3347 4.19393H22.1878L22.1633 4.21817H22.0653L22.0408 4.24242H21.9918L21.9673 4.26666H21.9184L21.8939 4.2909H21.8694L21.8449 4.31514H21.8204L21.7959 4.33939H21.7714L21.7469 4.36363H21.7224L21.6735 4.41211H21.649L21.6 4.4606H21.5755L21.3061 4.72727V4.75151L21.2571 4.79999V4.82423L21.1837 4.89696V4.9212L21.0857 5.01817V5.04242L20.9878 5.13939V5.16363L20.8653 5.28484V5.30908L20.3755 5.79393H20.351L20.2286 5.91514H20.2041L20.1061 6.01211H20.0816L20.0082 6.08484H19.9837L19.9347 6.13333H19.9102L19.8612 6.18181H19.8367L19.7878 6.2303H19.7633L19.7388 6.25454H19.7143L19.6653 6.30302H19.6408L19.6163 6.32727H19.5918L19.5673 6.35151H19.5429L19.5184 6.37575H19.4939L19.4694 6.39999H19.4449L19.4204 6.42423H19.3959L19.3714 6.44848H19.3469L19.3224 6.47272H19.298L19.2735 6.49696H19.2245L19.2 6.5212H19.1755L19.151 6.54545H19.102L19.0776 6.56969H19.0286L19.0041 6.59393H18.9551L18.9306 6.61817H18.8816L18.8571 6.64242H18.7837L18.7592 6.66666H18.7102L18.6857 6.6909H18.5878L18.5633 6.71514H18.4653L18.4408 6.73939H18.2694L18.2449 6.76363H17.4367L17.4122 6.73939H17.2408L17.2163 6.71514H17.0939L17.0694 6.6909H16.9714L16.9469 6.66666H16.8735L16.849 6.64242H16.7755L16.751 6.61817H16.6776L16.6531 6.59393H16.6041L16.5796 6.56969H16.5306L16.5061 6.54545H16.4327L16.4082 6.5212H16.3837L16.3592 6.49696H16.3102L16.2857 6.47272H16.2367L16.2122 6.44848H16.1633L16.1388 6.42423H16.1143L16.0898 6.39999H16.0653L16.0408 6.37575H15.9918L15.9673 6.35151H15.9429L15.9184 6.32727H15.8939L15.8694 6.30302H15.8204L15.7959 6.27878H15.7714L15.7469 6.25454H15.7224L15.698 6.2303H15.6735L15.649 6.20605H15.6245L15.6 6.18181H15.5755L15.551 6.15757H15.5265L15.502 6.13333H15.4776L15.4531 6.10908H15.4286L15.4041 6.08484H15.3796L15.3306 6.03636H15.3061L15.2816 6.01211H15.2571L15.2327 5.98787H15.2082L15.1592 5.93939H15.1347L15.1102 5.91514H15.0857L15.0612 5.8909H15.0367L14.9878 5.84242H14.9633L14.9388 5.81817H14.9143L14.8898 5.79393H14.8653L14.8163 5.74545H14.7918L14.7673 5.7212H14.7429L14.7184 5.69696H14.6939L14.6694 5.67272H14.6449L14.5959 5.62423H14.5714L14.5469 5.59999H14.5224L14.498 5.57575H14.4735L14.449 5.55151H14.4245L14.3755 5.50302H14.351L14.3265 5.47878H14.302L14.2776 5.45454H14.2531L14.2041 5.40605H14.1796L14.1551 5.38181H14.1306L14.1061 5.35757H14.0816L14.0327 5.30908H14.0082L13.9837 5.28484H13.9592L13.9347 5.2606H13.9102L13.8857 5.23636H13.8612L13.8122 5.18787H13.7878L13.7633 5.16363H13.7388L13.7143 5.13939H13.6898L13.6653 5.11514H13.6408L13.6163 5.0909H13.5918L13.5673 5.06666H13.5429L13.5184 5.04242H13.4939L13.4694 5.01817H13.4449L13.4204 4.99393H13.3959L13.3714 4.96969H13.3469L13.3224 4.94545H13.298L13.2735 4.9212H13.249L13.2245 4.89696H13.2L13.1755 4.87272H13.151L13.1265 4.84848H13.102L13.0776 4.82423H13.0286L13.0041 4.79999H12.9796L12.9551 4.77575H12.9306L12.9061 4.75151H12.8571L12.8327 4.72727H12.8082L12.7837 4.70302H12.7347L12.7102 4.67878H12.6857L12.6612 4.65454H12.6122L12.5878 4.6303H12.5388L12.5143 4.60605H12.4898L12.4653 4.58181H12.4163L12.3918 4.55757H12.3429L12.3184 4.53333H12.2694L12.2449 4.50908H12.1959L12.1714 4.48484H12.1224L12.098 4.4606H12.0245L12 4.43636H11.951L11.9265 4.41211H11.8531L11.8286 4.38787H11.7551L11.7306 4.36363H11.6571L11.6327 4.33939H11.5592L11.5347 4.31514H11.4367L11.4122 4.2909H11.3388L11.3143 4.26666H11.1918L11.1673 4.24242H11.0449L11.0204 4.21817H10.8735L10.849 4.19393H10.6531L10.6286 4.16969H10.2612L10.2367 4.14545H9.77143Z" />
<path d="M16.5306 0L16.5061 0.0242424H16.2367L16.2122 0.0484848H16.0898L16.0653 0.0727273H15.9674L15.9429 0.0969697H15.8939L15.8694 0.121212H15.7959L15.7714 0.145455H15.7225L15.698 0.169697H15.649L15.6245 0.193939H15.6L15.5755 0.218182H15.5265L15.502 0.242424H15.4776L15.4531 0.266667H15.4286L15.4041 0.290909H15.3796L15.3551 0.315152H15.3306L15.3061 0.339394H15.2816L15.2571 0.363636H15.2327L15.2082 0.387879H15.1837L15.1592 0.412121H15.1347L15.0857 0.460606H15.0612L15.0122 0.509091H14.9878L14.9143 0.581818H14.8898L14.7674 0.70303H14.7429L14.498 0.945455V0.969697L14.3755 1.09091V1.11515L14.3265 1.16364V1.18788L14.2531 1.26061V1.28485L14.2286 1.30909V1.33333L14.1796 1.38182V1.40606L14.1551 1.4303V1.45455L14.1306 1.47879V1.50303L14.1061 1.52727V1.55152L14.0816 1.57576V1.6L14.0571 1.62424V1.64848L14.0327 1.67273V1.69697L14.0082 1.72121V1.7697L13.9837 1.79394V1.81818L13.9592 1.84242V1.89091L13.9347 1.91515V1.96364L13.9102 1.98788V2.06061L13.8857 2.08485V2.15758L13.8612 2.18182V2.27879L13.8367 2.30303V2.42424L13.8122 2.44848V3.12727L13.8367 3.15152V3.29697L13.8612 3.32121V3.39394L13.8857 3.41818V3.51515L13.9102 3.53939V3.58788L13.9347 3.61212V3.66061L13.9592 3.68485V3.73333L13.9837 3.75758V3.80606L14.0082 3.8303V3.85455L14.0327 3.87879V3.90303L14.0571 3.92727V3.97576L14.0816 4V4.02424L14.1061 4.04848V4.07273L14.1306 4.09697V4.12121L14.1796 4.1697V4.19394L14.2041 4.21818V4.24242L14.2531 4.29091V4.31515L14.2776 4.33939V4.36364L14.351 4.43636V4.46061L14.4245 4.53333V4.55758L14.8163 4.94545H14.8408L14.9388 5.04242H14.9633L15.0122 5.09091H15.0367L15.0857 5.13939H15.1102L15.1592 5.18788H15.1837L15.2082 5.21212H15.2327L15.2571 5.23636H15.2816L15.3061 5.26061H15.3306L15.3551 5.28485H15.3796L15.4041 5.30909H15.4286L15.4531 5.33333H15.4776L15.502 5.35758H15.5265L15.551 5.38182H15.6L15.6245 5.40606H15.649L15.6735 5.4303H15.7225L15.7469 5.45455H15.8204L15.8449 5.47879H15.8939L15.9184 5.50303H16.0163L16.0408 5.52727H16.1388L16.1633 5.55151H16.3102L16.3347 5.57576H16.898L16.9225 5.55151H17.0694L17.0939 5.52727H17.1918L17.2163 5.50303H17.3143L17.3388 5.47879H17.3878L17.4122 5.45455H17.4857L17.5102 5.4303H17.5347L17.5592 5.40606H17.6082L17.6327 5.38182H17.6816L17.7061 5.35758H17.7306L17.7551 5.33333H17.7796L17.8041 5.30909H17.8286L17.8531 5.28485H17.8776L17.902 5.26061H17.9265L17.951 5.23636H17.9755L18 5.21212H18.0245L18.049 5.18788H18.0735L18.1225 5.13939H18.1469L18.1959 5.09091H18.2204L18.2694 5.04242H18.2939L18.3918 4.94545H18.4163L18.7837 4.58182V4.55758L18.8816 4.46061V4.43636L18.9306 4.38788V4.36364L18.9796 4.31515V4.29091L19.0286 4.24242V4.21818L19.0531 4.19394V4.1697L19.0776 4.14545V4.12121L19.1265 4.07273V4.04848L19.151 4.02424V3.97576L19.1755 3.95152V3.92727L19.2 3.90303V3.87879L19.2245 3.85455V3.80606L19.249 3.78182V3.75758L19.2735 3.73333V3.68485L19.298 3.66061V3.61212L19.3225 3.58788V3.51515L19.3469 3.49091V3.41818L19.3714 3.39394V3.29697L19.3959 3.27273V3.12727L19.4204 3.10303V2.47273L19.3959 2.44848V2.30303L19.3714 2.27879V2.18182L19.3469 2.15758V2.08485L19.3225 2.06061V2.01212L19.298 1.98788V1.93939L19.2735 1.91515V1.86667L19.249 1.84242V1.79394L19.2245 1.7697V1.72121L19.2 1.69697V1.67273L19.1755 1.64848V1.62424L19.151 1.6V1.57576L19.1265 1.55152V1.52727L19.102 1.50303V1.47879L19.0776 1.45455V1.4303L19.0531 1.40606V1.38182L19.0041 1.33333V1.30909L18.9551 1.26061V1.23636L18.9061 1.18788V1.16364L18.8327 1.09091V1.06667L18.7347 0.969697V0.945455L18.4898 0.70303H18.4653L18.3429 0.581818H18.3184L18.2449 0.509091H18.2204L18.1714 0.460606H18.1469L18.1225 0.436364H18.098L18.049 0.387879H18.0245L18 0.363636H17.9755L17.951 0.339394H17.9265L17.8776 0.290909H17.8286L17.8041 0.266667H17.7796L17.7551 0.242424H17.7306L17.7061 0.218182H17.6816L17.6571 0.193939H17.6082L17.5837 0.169697H17.5347L17.5102 0.145455H17.4612L17.4367 0.121212H17.3878L17.3633 0.0969697H17.2898L17.2653 0.0727273H17.1674L17.1429 0.0484848H17.0204L16.9959 0.0242424H16.7265L16.702 0H16.5306Z" />
</g>
<defs>
<clipPath id="clip0_18_364">
<rect width="24" height="24" fill="white"/>
</clipPath>
</defs>
</svg>
